<svg width="19" height="13" viewBox="0 0 19 13" fill="none" xmlns="http://www.w3.org/2000/svg">
<g clip-path="url(#clip0_7736_9937)">
<path d="M13.436 8.01558C13.436 8.90089 13.436 9.6142 13.436 10.3275C13.432 11.8932 12.572 12.9286 11.0685 12.957C8.17699 13.0112 5.2846 13.0112 2.39139 12.957C0.874567 12.9296 0.00759591 11.9069 0.00412604 10.3463C-0.00116137 7.73384 -0.00116137 5.12156 0.00412604 2.50946C-0.0240911 2.17286 0.0200453 1.83402 0.133435 1.51675C0.246824 1.19948 0.426715 0.911464 0.660471 0.672943C0.894227 0.434423 1.17618 0.251182 1.48651 0.136093C1.79685 0.0210051 2.12804 -0.023139 2.45683 0.00676268C5.3008 -0.00304583 8.14493 -0.00304583 10.9892 0.00676268C11.3179 -0.0164004 11.6476 0.0331713 11.9558 0.152104C12.2641 0.271037 12.5437 0.45654 12.7756 0.69599C13.0076 0.93544 13.1864 1.22322 13.2999 1.53974C13.4134 1.85626 13.459 2.19409 13.4335 2.53026C13.437 3.29938 13.4335 4.0685 13.4335 4.90409C13.9517 4.6691 14.4328 4.35655 14.8611 3.97667C15.7816 3.32931 16.6818 2.651 17.5874 1.98284C17.8898 1.76012 18.1952 1.54754 18.5887 1.73881C18.9907 1.93414 18.9987 2.30804 18.9982 2.69413C18.9942 5.23081 18.9942 7.76851 18.9982 10.3072C18.9982 10.6969 18.9719 11.052 18.5714 11.2519C18.1991 11.4381 17.9171 11.2519 17.634 11.0464C16.2847 10.0738 14.9365 9.10078 13.4345 8.01761L13.436 8.01558ZM6.66379 11.3889C8.09685 11.3889 9.5304 11.3802 10.9635 11.3924C11.0913 11.4135 11.2222 11.4045 11.3461 11.3662C11.4701 11.3278 11.5839 11.2611 11.6789 11.171C11.7739 11.081 11.8477 10.97 11.8945 10.8464C11.9414 10.7228 11.9601 10.59 11.9494 10.4579C11.9682 7.82246 11.9682 5.18701 11.9494 2.55156C11.9643 2.40744 11.9468 2.26172 11.8981 2.12562C11.8494 1.98952 11.7708 1.86667 11.6685 1.76651C11.5661 1.66636 11.4427 1.59156 11.3076 1.54788C11.1726 1.50421 11.0296 1.49281 10.8896 1.51457C8.12015 1.52421 5.3507 1.51457 2.58174 1.52167C1.78466 1.52421 1.48725 1.83013 1.48725 2.65658C1.47965 5.19327 1.47965 7.72995 1.48725 10.2666C1.49022 11.0992 1.77822 11.3828 2.58273 11.3894C3.94342 11.3965 5.3036 11.3894 6.66429 11.3894L6.66379 11.3889ZM17.4878 3.95689C16.4567 4.70775 15.5149 5.4373 14.5275 6.09481C14.0001 6.44639 14.063 6.62396 14.5458 6.93039C15.1218 7.29567 15.6418 7.75126 16.2114 8.1277C16.5868 8.47047 17.0191 8.74177 17.4878 8.92879V3.95689Z" fill="#0054B8"/>
</g>
<defs>
<clipPath id="clip0_7736_9937">
<rect width="19" height="13" fill="white"/>
</clipPath>
</defs>
</svg>
