<svg width="24" height="24" viewBox="0 0 24 24" fill="none" xmlns="http://www.w3.org/2000/svg">
<path fill-rule="evenodd" clip-rule="evenodd" d="M6.7331 4.83857C6.92302 4.64866 7.1806 4.54196 7.44918 4.54196C7.71776 4.54196 7.97534 4.64866 8.16525 4.83857C8.3539 5.02722 8.46043 5.28263 8.46184 5.54927C8.46183 5.55107 8.46183 5.55287 8.46183 5.55467C8.46183 5.55646 8.46183 5.55826 8.46184 5.56005C8.46042 5.82668 8.35389 6.08208 8.16525 6.27072C7.97534 6.46063 7.71776 6.56733 7.44918 6.56733C7.1806 6.56733 6.92302 6.46063 6.7331 6.27072C6.54319 6.0808 6.43649 5.82322 6.43649 5.55465C6.43649 5.28607 6.54319 5.02849 6.7331 4.83857ZM10.3135 6.56735C10.1638 6.99055 9.92085 7.37942 9.5974 7.70287C9.02765 8.27261 8.25492 8.59269 7.44918 8.59269C6.64344 8.59269 5.8707 8.27261 5.30096 7.70287C4.97751 7.37942 4.73452 6.99055 4.58489 6.56735H3.39842C3.12984 6.56735 2.87226 6.46066 2.68235 6.27075C2.49244 6.08083 2.38574 5.82325 2.38574 5.55467C2.38574 5.28609 2.49244 5.02851 2.68235 4.8386C2.87226 4.64869 3.12984 4.54199 3.39842 4.54199H4.58487C4.7345 4.11878 4.97749 3.72989 5.30096 3.40642C5.8707 2.83668 6.64344 2.5166 7.44918 2.5166C8.25492 2.5166 9.02765 2.83668 9.5974 3.40642C9.92086 3.72989 10.1639 4.11878 10.3135 4.54199H19.6013C19.8699 4.54199 20.1275 4.64869 20.3174 4.8386C20.5073 5.02851 20.614 5.28609 20.614 5.55467C20.614 5.82325 20.5073 6.08083 20.3174 6.27075C20.1275 6.46066 19.8699 6.56735 19.6013 6.56735H10.3135ZM14.8346 10.9147C15.0245 10.7247 15.282 10.6181 15.5506 10.6181C15.8192 10.6181 16.0768 10.7247 16.2667 10.9147C16.4554 11.1034 16.562 11.3589 16.5633 11.6256C16.5633 11.6273 16.5633 11.6291 16.5633 11.6308C16.5633 11.6325 16.5633 11.6341 16.5633 11.6358C16.562 11.9026 16.4554 12.1581 16.2667 12.3468C16.0768 12.5367 15.8192 12.6434 15.5506 12.6434C15.282 12.6434 15.0245 12.5367 14.8346 12.3468C14.6446 12.1569 14.5379 11.8993 14.5379 11.6307C14.5379 11.3622 14.6446 11.1046 14.8346 10.9147ZM18.4149 12.6434C18.2653 13.0666 18.0223 13.4555 17.6988 13.779C17.1291 14.3487 16.3564 14.6688 15.5506 14.6688C14.7449 14.6688 13.9721 14.3487 13.4024 13.779C13.079 13.4555 12.836 13.0666 12.6863 12.6434H3.39842C3.12984 12.6434 2.87226 12.5367 2.68235 12.3468C2.49244 12.1569 2.38574 11.8993 2.38574 11.6308C2.38574 11.3622 2.49244 11.1046 2.68235 10.9147C2.87226 10.7248 3.12984 10.6181 3.39842 10.6181H12.6863C12.836 10.1949 13.0789 9.80597 13.4024 9.48251C13.9721 8.91277 14.7449 8.59269 15.5506 8.59269C16.3564 8.59269 17.1291 8.91277 17.6988 9.48251C18.0223 9.80597 18.2653 10.1949 18.4149 10.6181H19.6013C19.8699 10.6181 20.1275 10.7248 20.3174 10.9147C20.5073 11.1046 20.614 11.3622 20.614 11.6308C20.614 11.8993 20.5073 12.1569 20.3174 12.3468C20.1275 12.5367 19.8699 12.6434 19.6013 12.6434H18.4149ZM6.7331 16.9907C6.92302 16.8008 7.1806 16.6941 7.44918 16.6941C7.71776 16.6941 7.97534 16.8008 8.16525 16.9907C8.3539 17.1794 8.46043 17.4348 8.46184 17.7014C8.46183 17.7032 8.46183 17.705 8.46183 17.7068C8.46183 17.7086 8.46183 17.7104 8.46184 17.7122C8.46042 17.9788 8.35389 18.2343 8.16525 18.4229C7.97534 18.6128 7.71776 18.7195 7.44918 18.7195C7.1806 18.7195 6.92302 18.6128 6.7331 18.4229C6.54319 18.233 6.43649 17.9754 6.43649 17.7068C6.43649 17.4382 6.54319 17.1807 6.7331 16.9907ZM10.3135 18.7195C10.1638 19.1427 9.92085 19.5316 9.5974 19.855C9.02765 20.4248 8.25492 20.7449 7.44918 20.7449C6.64344 20.7449 5.8707 20.4248 5.30096 19.855C4.97751 19.5316 4.73452 19.1427 4.58489 18.7195H3.39842C3.12984 18.7195 2.87226 18.6128 2.68235 18.4229C2.49244 18.233 2.38574 17.9754 2.38574 17.7068C2.38574 17.4383 2.49244 17.1807 2.68235 16.9908C2.87226 16.8009 3.12984 16.6942 3.39842 16.6942H4.58487C4.7345 16.271 4.97749 15.8821 5.30096 15.5586C5.8707 14.9889 6.64344 14.6688 7.44918 14.6688C8.25492 14.6688 9.02765 14.9889 9.5974 15.5586C9.92086 15.8821 10.1639 16.271 10.3135 16.6942H19.6013C19.8699 16.6942 20.1275 16.8009 20.3174 16.9908C20.5073 17.1807 20.614 17.4383 20.614 17.7068C20.614 17.9754 20.5073 18.233 20.3174 18.4229C20.1275 18.6128 19.8699 18.7195 19.6013 18.7195H10.3135Z" fill="#0054B8"/>
</svg>
