<svg width="19" height="19" viewBox="0 0 19 19" fill="none" xmlns="http://www.w3.org/2000/svg">
<path fill-rule="evenodd" clip-rule="evenodd" d="M4.34736 2.32197C4.53727 2.13206 4.79485 2.02536 5.06343 2.02536C5.33201 2.02536 5.58959 2.13206 5.77951 2.32197C5.96816 2.51062 6.07469 2.76603 6.0761 3.03267C6.07609 3.03447 6.07609 3.03627 6.07609 3.03807C6.07609 3.03986 6.07609 3.04165 6.0761 3.04344C6.07468 3.31007 5.96815 3.56548 5.77951 3.75412C5.58959 3.94403 5.33201 4.05072 5.06343 4.05072C4.79485 4.05072 4.53727 3.94403 4.34736 3.75412C4.15745 3.5642 4.05075 3.30662 4.05075 3.03804C4.05075 2.76946 4.15745 2.51188 4.34736 2.32197ZM7.92772 4.05075C7.77809 4.47395 7.5351 4.86282 7.21166 5.18626C6.64191 5.75601 5.86917 6.07609 5.06343 6.07609C4.25769 6.07609 3.48496 5.75601 2.91521 5.18626C2.59177 4.86282 2.34878 4.47395 2.19915 4.05075H1.01268C0.744101 4.05075 0.486522 3.94406 0.296607 3.75415C0.106693 3.56423 0 3.30665 0 3.03807C0 2.76949 0.106693 2.51191 0.296607 2.322C0.486522 2.13208 0.744101 2.02539 1.01268 2.02539H2.19913C2.34876 1.60218 2.59175 1.21328 2.91521 0.889822C3.48496 0.320079 4.25769 0 5.06343 0C5.86917 0 6.64191 0.320079 7.21166 0.889822C7.53512 1.21328 7.77811 1.60218 7.92774 2.02539H17.2156C17.4842 2.02539 17.7417 2.13208 17.9317 2.322C18.1216 2.51191 18.2283 2.76949 18.2283 3.03807C18.2283 3.30665 18.1216 3.56423 17.9317 3.75415C17.7417 3.94406 17.4842 4.05075 17.2156 4.05075H7.92772ZM12.4488 8.39806C12.6387 8.20814 12.8963 8.10145 13.1649 8.10145C13.4335 8.10145 13.691 8.20814 13.881 8.39806C14.0697 8.58677 14.1762 8.8423 14.1776 9.10905C14.1775 9.11075 14.1775 9.11246 14.1775 9.11416C14.1775 9.11585 14.1775 9.11754 14.1776 9.11924C14.1762 9.38597 14.0697 9.64149 13.881 9.8302C13.691 10.0201 13.4335 10.1268 13.1649 10.1268C12.8963 10.1268 12.6387 10.0201 12.4488 9.8302C12.2589 9.64029 12.1522 9.38271 12.1522 9.11413C12.1522 8.84555 12.2589 8.58797 12.4488 8.39806ZM16.0292 10.1268C15.8795 10.55 15.6366 10.9389 15.3131 11.2624C14.7434 11.8321 13.9706 12.1522 13.1649 12.1522C12.3591 12.1522 11.5864 11.8321 11.0167 11.2624C10.6932 10.9389 10.4502 10.55 10.3006 10.1268H1.01268C0.744101 10.1268 0.486522 10.0201 0.296607 9.83023C0.106693 9.64032 0 9.38274 0 9.11416C0 8.84558 0.106693 8.588 0.296607 8.39808C0.486522 8.20817 0.744101 8.10148 1.01268 8.10148H10.3006C10.4502 7.67826 10.6932 7.28937 11.0167 6.96591C11.5864 6.39616 12.3591 6.07609 13.1649 6.07609C13.9706 6.07609 14.7434 6.39616 15.3131 6.96591C15.6366 7.28937 15.8796 7.67826 16.0292 8.10148H17.2156C17.4842 8.10148 17.7417 8.20817 17.9317 8.39808C18.1216 8.588 18.2283 8.84558 18.2283 9.11416C18.2283 9.38274 18.1216 9.64032 17.9317 9.83023C17.7417 10.0201 17.4842 10.1268 17.2156 10.1268H16.0292ZM4.34736 14.4741C4.53727 14.2842 4.79485 14.1775 5.06343 14.1775C5.33201 14.1775 5.58959 14.2842 5.77951 14.4741C5.96815 14.6628 6.07469 14.9182 6.0761 15.1848C6.07609 15.1866 6.07609 15.1884 6.07609 15.1902C6.07609 15.192 6.07609 15.1938 6.0761 15.1956C6.07468 15.4622 5.96815 15.7177 5.77951 15.9063C5.58959 16.0962 5.33201 16.2029 5.06343 16.2029C4.79485 16.2029 4.53727 16.0962 4.34736 15.9063C4.15745 15.7164 4.05075 15.4588 4.05075 15.1902C4.05075 14.9216 4.15745 14.6641 4.34736 14.4741ZM7.92772 16.2029C7.77809 16.6261 7.5351 17.015 7.21166 17.3384C6.64191 17.9082 5.86917 18.2283 5.06343 18.2283C4.25769 18.2283 3.48496 17.9082 2.91521 17.3384C2.59177 17.015 2.34878 16.6261 2.19915 16.2029H1.01268C0.744101 16.2029 0.486522 16.0962 0.296607 15.9063C0.106693 15.7164 0 15.4588 0 15.1902C0 14.9217 0.106693 14.6641 0.296607 14.4742C0.486522 14.2843 0.744101 14.1776 1.01268 14.1776H2.19913C2.34876 13.7543 2.59175 13.3655 2.91521 13.042C3.48496 12.4723 4.25769 12.1522 5.06343 12.1522C5.86917 12.1522 6.64191 12.4723 7.21166 13.042C7.53512 13.3655 7.77811 13.7543 7.92774 14.1776H17.2156C17.4842 14.1776 17.7417 14.2843 17.9317 14.4742C18.1216 14.6641 18.2283 14.9217 18.2283 15.1902C18.2283 15.4588 18.1216 15.7164 17.9317 15.9063C17.7417 16.0962 17.4842 16.2029 17.2156 16.2029H7.92772Z" fill="white"/>
</svg>
