<svg width="18" height="22" viewBox="0 0 18 22" fill="none" xmlns="http://www.w3.org/2000/svg">
<path d="M2.25041 0.000375714C1.66451 -0.0104223 1.09831 0.211908 0.676304 0.618481C0.254296 1.02505 0.0110312 1.58258 0 2.16847V19.5083C0.0110312 20.0942 0.254296 20.6518 0.676304 21.0583C1.09831 21.4649 1.66451 21.6872 2.25041 21.6764H15.7496C16.3355 21.6872 16.9017 21.4649 17.3237 21.0583C17.7457 20.6518 17.989 20.0942 18 19.5083V6.50303L11.2504 0.000375714H2.25041ZM2.25041 2.16847H10.1244V7.5879H15.7496V19.5083H2.25041V2.16847ZM4.5 10.8392V13.0057H13.4992V10.8392H4.5ZM4.5 15.1746V17.3427H10.1244V15.1746H4.5Z" fill="white"/>
</svg>
