<svg width="10" height="12" viewBox="0 0 10 12" fill="none" xmlns="http://www.w3.org/2000/svg">
<path d="M1.25023 0.000207991C0.92473 -0.00576965 0.610174 0.11731 0.375724 0.342383C0.141275 0.567456 0.00612843 0.876097 0 1.20044V10.7996C0.00612843 11.1239 0.141275 11.4325 0.375724 11.6576C0.610174 11.8827 0.92473 12.0058 1.25023 11.9998H8.74977C9.07527 12.0058 9.38983 11.8827 9.62428 11.6576C9.85872 11.4325 9.99387 11.1239 10 10.7996V3.59999L6.25023 0.000207991H1.25023ZM1.25023 1.20044H5.62466V4.20056H8.74977V10.7996H1.25023V1.20044ZM2.5 6.00046V7.19978H7.49954V6.00046H2.5ZM2.5 8.40046V9.6007H5.62466V8.40046H2.5Z" fill="#0054B8"/>
</svg>
