<svg width="21" height="20" viewBox="0 0 21 20" fill="none" xmlns="http://www.w3.org/2000/svg">
<path d="M17.2667 6C17.3997 5.99784 17.5319 6.02223 17.6553 6.07171C17.7787 6.1212 17.8908 6.19478 17.9849 6.28807C18.079 6.38137 18.1532 6.49247 18.2032 6.61477C18.2531 6.73707 18.2777 6.86808 18.2755 7C18.2755 7.26522 18.1692 7.51957 17.98 7.70711C17.7908 7.89464 17.5342 8 17.2667 8C16.9991 8 16.7425 7.89464 16.5533 7.70711C16.3641 7.51957 16.2578 7.26522 16.2578 7C16.2548 6.86786 16.2788 6.73647 16.3284 6.61379C16.378 6.4911 16.4522 6.37966 16.5465 6.2862C16.6408 6.19273 16.7533 6.11918 16.877 6.06999C17.0008 6.0208 17.1333 5.99699 17.2667 6ZM0.116211 0V9C0.117758 10.4389 0.643114 11.8289 1.59575 12.9147C2.54838 14.0004 3.86429 14.7089 5.3017 14.91C5.61185 16.3633 6.4209 17.665 7.59092 18.5931C8.76094 19.5213 10.2195 20.0185 11.718 20C12.5791 20 13.4318 19.8319 14.2274 19.5052C15.023 19.1786 15.7459 18.6998 16.3548 18.0962C16.9638 17.4926 17.4468 16.7761 17.7763 15.9874C18.1059 15.1988 18.2755 14.3536 18.2755 13.5V9.81C18.9486 9.5741 19.5159 9.10993 19.8772 8.49952C20.2384 7.88911 20.3703 7.17176 20.2496 6.47427C20.1289 5.77677 19.7633 5.14404 19.2174 4.68789C18.6716 4.23175 17.9806 3.98157 17.2667 3.98157C16.5527 3.98157 15.8617 4.23175 15.3159 4.68789C14.77 5.14404 14.4044 5.77677 14.2837 6.47427C14.163 7.17176 14.2949 7.88911 14.6561 8.49952C15.0174 9.10993 15.5847 9.5741 16.2578 9.81V13.41C16.2603 14.0017 16.1446 14.5879 15.9174 15.135C15.6901 15.6821 15.3558 16.1792 14.9338 16.5976C14.5117 17.016 14.0102 17.3473 13.4583 17.5726C12.9063 17.7978 12.3149 17.9125 11.718 17.91C10.7692 17.9273 9.83945 17.6449 9.06323 17.1038C8.28702 16.5627 7.70456 15.7909 7.4001 14.9C8.75955 14.604 9.97719 13.8589 10.8534 12.7869C11.7296 11.7149 12.2123 10.3796 12.2224 9V0H8.18701V3H10.2047V9C10.2047 10.0609 9.77955 11.0783 9.02277 11.8284C8.26598 12.5786 7.23956 13 6.16931 13C5.09905 13 4.07263 12.5786 3.31585 11.8284C2.55907 11.0783 2.13391 10.0609 2.13391 9V3H4.15161V0H0.116211Z" fill="white"/>
</svg>
