<svg width="21" height="20" viewBox="0 0 21 20" fill="none" xmlns="http://www.w3.org/2000/svg">
<path d="M17.1504 6C17.2835 5.99784 17.4157 6.02223 17.5391 6.07171C17.6625 6.1212 17.7745 6.19478 17.8687 6.28807C17.9628 6.38137 18.037 6.49247 18.0869 6.61477C18.1369 6.73707 18.1615 6.86808 18.1593 7C18.1593 7.26522 18.053 7.51957 17.8638 7.70711C17.6746 7.89464 17.418 8 17.1504 8C16.8829 8 16.6263 7.89464 16.4371 7.70711C16.2479 7.51957 16.1416 7.26522 16.1416 7C16.1386 6.86786 16.1626 6.73647 16.2122 6.61379C16.2618 6.4911 16.336 6.37966 16.4303 6.2862C16.5246 6.19273 16.637 6.11918 16.7608 6.06999C16.8846 6.0208 17.0171 5.99699 17.1504 6V6ZM0 0V9C0.00154703 10.4389 0.526903 11.8289 1.47954 12.9147C2.43217 14.0004 3.74808 14.7089 5.18549 14.91C5.49564 16.3633 6.30469 17.665 7.47471 18.5931C8.64473 19.5213 10.1033 20.0185 11.6018 20C12.4629 20 13.3156 19.8319 14.1112 19.5052C14.9068 19.1786 15.6297 18.6998 16.2386 18.0962C16.8476 17.4926 17.3306 16.7761 17.6601 15.9874C17.9897 15.1988 18.1593 14.3536 18.1593 13.5V9.81C18.8324 9.5741 19.3997 9.10993 19.761 8.49952C20.1222 7.88911 20.2541 7.17176 20.1334 6.47427C20.0127 5.77677 19.6471 5.14404 19.1012 4.68789C18.5554 4.23175 17.8644 3.98157 17.1504 3.98157C16.4365 3.98157 15.7455 4.23175 15.1997 4.68789C14.6538 5.14404 14.2882 5.77677 14.1675 6.47427C14.0468 7.17176 14.1787 7.88911 14.5399 8.49952C14.9012 9.10993 15.4685 9.5741 16.1416 9.81V13.41C16.1441 14.0017 16.0284 14.5879 15.8012 15.135C15.5739 15.6821 15.2396 16.1792 14.8176 16.5976C14.3955 17.016 13.894 17.3473 13.3421 17.5726C12.7901 17.7978 12.1987 17.9125 11.6018 17.91C10.653 17.9273 9.72324 17.6449 8.94702 17.1038C8.1708 16.5627 7.58835 15.7909 7.28389 14.9C8.64334 14.604 9.86098 13.8589 10.7372 12.7869C11.6133 11.7149 12.0961 10.3796 12.1062 9V0H8.0708V3H10.0885V9C10.0885 10.0609 9.66334 11.0783 8.90655 11.8284C8.14977 12.5786 7.12335 13 6.0531 13C4.98284 13 3.95642 12.5786 3.19964 11.8284C2.44286 11.0783 2.0177 10.0609 2.0177 9V3H4.0354V0H0Z" fill="#0054B8"/>
</svg>
